<?xml version="1.0" encoding="UTF-8"?>
<svg width="400px" height="400px" viewBox="0 0 400 400" version="1.1" xmlns="http://www.w3.org/2000/svg" xmlns:xlink="http://www.w3.org/1999/xlink">
    <title>audemars-logo</title>
    <defs>
        <polygon id="path-1" points="0 0.45243236 35.277814 0.45243236 35.277814 51.6348795 0 51.6348795"></polygon>
    </defs>
    <g id="audemars-logo" stroke="none" stroke-width="1" fill="none" fill-rule="evenodd">
        <g id="Group-48" transform="translate(0.000000, 157.033248)">
            <path d="M147.896008,80.6570359 C146.916064,83.6722466 146.765304,84.2752887 150.082035,84.2752887 C153.248006,84.2752887 154.37871,84.1245282 156.037076,81.4108386 C156.338597,81.3347045 156.564738,81.4108386 156.640118,81.5615991 C156.338597,82.4654085 155.358654,84.4260493 154.906372,85.1798519 C153.926429,85.1798519 152.795725,85.1037179 151.740401,85.1037179 L148.64981,85.1037179 L145.483839,85.1037179 C144.353135,85.1037179 143.448572,85.1037179 142.619389,85.1798519 C142.393248,85.0290914 142.393248,84.6521901 142.619389,84.5014295 L143.297811,84.4260493 C144.579276,84.1999085 144.880797,83.9730139 145.78536,81.1846978 L148.951331,71.0083618 C149.780514,68.4454328 149.855894,67.9931512 148.348289,67.7662566 L147.669867,67.6916301 C147.519106,67.4654893 147.519106,67.088588 147.820627,67.0124539 C148.875951,67.0124539 149.780514,67.088588 150.911218,67.088588 C152.117302,67.088588 152.946485,67.0124539 154.37871,67.0124539 C154.604851,67.088588 154.604851,67.5408696 154.37871,67.6916301 L153.549528,67.7662566 C151.966542,67.9931512 151.891162,68.2946722 150.986598,71.0083618 L147.896008,80.6570359 Z" id="Fill-1" fill="#FFFFFF"></path>
            <path d="M164.253676,76.0583874 C163.198352,77.1890914 162.59531,78.4705559 162.218409,79.2243586 C164.027535,78.6966967 164.856718,78.1697887 165.912042,77.1890914 C166.741225,76.3599085 166.967366,75.6061058 166.967366,75.3045847 C166.967366,75.0038175 166.816605,74.7015426 166.364324,74.7015426 C165.987422,74.7776767 165.23362,75.0038175 164.253676,76.0583874 M168.625732,75.5314793 C168.625732,77.6421268 165.912042,78.9982178 161.992268,80.0542953 C161.766127,80.5058231 161.615367,81.4111401 161.615367,82.4657101 C161.615367,83.3702733 162.218409,84.0494495 162.896831,84.0494495 C163.876775,84.0494495 164.555197,83.5210338 165.761281,82.4657101 C165.987422,82.4657101 166.138183,82.6926047 166.138183,82.9187455 C164.479817,84.9540127 162.896831,85.4055404 161.766127,85.4055404 C160.107761,85.4055404 159.5801,83.8979351 159.5801,82.5418441 C159.5801,80.808098 160.710804,77.4906125 163.650634,75.154578 C165.082859,74.023874 166.138183,73.8731135 166.967366,73.8731135 C168.022689,73.8731135 168.625732,74.8523031 168.625732,75.5314793" id="Fill-3" fill="#FFFFFF"></path>
            <path d="M185.284695,74.098802 C185.058554,74.7772244 185.133935,74.9279849 186.264639,74.9279849 C188.224526,74.9279849 191.767398,73.9480415 191.767398,70.5559295 C191.767398,68.9729439 190.561314,67.8422399 188.299906,67.8422399 C187.244582,67.8422399 187.244582,67.8422399 186.943061,68.7468031 L185.284695,74.098802 Z M182.872527,81.9383497 C182.269484,83.7474761 183.098667,84.3505182 185.058554,84.3505182 C187.319962,84.3505182 190.259793,82.9182932 190.259793,79.2246601 C190.259793,76.8878719 188.299906,75.7571679 186.189258,75.7571679 C184.907794,75.7571679 184.757033,75.7571679 184.530892,76.6617311 L182.872527,81.9383497 Z M184.380132,70.4051689 C185.058554,68.2945215 184.757033,68.0683807 183.550949,67.9930004 L182.646386,67.9930004 C182.420245,67.8422399 182.495625,67.4653385 182.646386,67.314578 C183.626329,67.1638175 185.209315,67.0130569 187.244582,67.0130569 C188.676807,67.0130569 190.335173,67.0884372 191.692018,67.6914793 C193.048863,68.2945215 194.028806,69.2744649 194.028806,71.1589716 C194.028806,73.9480415 191.239736,75.229506 189.732131,75.3048863 C189.279849,75.3048863 189.50599,75.5310271 189.732131,75.6064073 C191.315116,76.1340692 192.596581,77.6416745 192.596581,79.6015614 C192.596581,80.5815049 192.29506,82.01373 191.088976,83.144434 C189.958272,84.275138 187.923004,85.2550814 184.530892,85.2550814 C183.023287,85.2550814 182.043344,85.1797012 180.91264,85.1797012 C179.857316,85.1797012 178.877372,85.1797012 178.12357,85.2550814 C177.897429,85.1043209 177.897429,84.7274196 178.12357,84.576659 L178.651232,84.5012788 C179.932696,84.275138 180.234217,84.0489972 181.13878,81.2599273 L184.380132,70.4051689 Z" id="Fill-5" fill="#FFFFFF"></path>
            <path d="M200.285293,76.5111213 L199.079209,79.9786135 L199.229969,79.9786135 C200.059152,78.4710082 201.415997,76.2849805 202.094419,75.3804173 C202.697461,74.5504805 203.375884,73.9481922 204.054306,73.9481922 C205.03425,73.9481922 205.18501,74.8527554 205.18501,75.3042832 C205.18501,75.6811845 204.958869,76.5111213 204.581968,76.9634029 C204.280447,77.3403042 203.828165,77.4156845 203.677405,76.8118885 C203.526644,76.1342199 203.375884,75.7573186 203.074363,75.7573186 C202.848222,75.7573186 202.546701,76.0580859 202.094419,76.5865015 C200.436053,78.6963952 198.928448,82.0885072 197.420843,85.1798519 C197.345462,85.4059927 197.194702,85.4806192 196.968561,85.4806192 C196.66704,85.4806192 195.837857,85.4059927 196.063998,84.8029506 C196.440899,83.6722466 198.174645,78.8479095 198.853068,76.2096002 C198.928448,75.9080791 198.853068,75.6065581 198.626927,75.6065581 C197.948505,75.6065581 197.194702,76.3603607 196.66704,77.0387831 C196.365519,77.1141634 196.214758,76.9634029 196.214758,76.5865015 C197.119322,75.0788962 198.099265,73.9481922 199.45611,73.9481922 C201.039095,73.872812 200.511434,75.7573186 200.285293,76.5111213" id="Fill-7" fill="#FFFFFF"></path>
            <path d="M210.612163,76.36021 C208.878417,77.9431956 207.220051,81.4860681 207.220051,83.445955 C207.220051,83.7474761 207.370812,83.9736169 207.596952,83.9736169 C207.898474,83.9736169 208.727656,83.5967156 210.235262,82.1644905 C212.346663,80.2046036 213.477367,77.8678153 213.928895,76.2848297 C213.703508,75.7571679 213.250472,75.3048863 212.572804,75.3048863 C211.893628,75.3048863 211.4421,75.6064073 210.612163,76.36021 L210.612163,76.36021 Z M215.361874,73.2696191 C215.813402,73.0434783 216.567204,73.3449993 216.718719,73.6465204 C216.341817,74.6264639 213.928895,80.7322654 213.024332,83.2198142 C212.873571,83.6720958 213.024332,83.8228564 213.250472,83.8228564 C213.703508,83.8228564 214.531937,83.3705748 216.039542,82.01373 C216.265683,82.01373 216.416444,82.1644905 216.416444,82.3906313 C215.28574,83.8982366 213.326607,85.4812222 211.819001,85.4812222 C211.215959,85.4812222 210.989064,84.9535604 210.989064,84.7274196 C210.989064,84.5012788 211.065199,84.275138 211.290586,83.6720958 L212.195903,81.184547 L212.119768,81.184547 C210.159882,83.5967156 207.370812,85.4812222 206.089347,85.4812222 C205.335544,85.4812222 204.883263,84.7274196 204.883263,83.9736169 C204.883263,83.3705748 205.486305,81.184547 207.296185,78.6969983 C208.57765,76.8878719 209.78298,75.8325481 210.913684,75.1541257 C211.969762,74.5510836 212.64743,74.3249428 213.401233,74.3249428 C213.703508,74.3249428 213.928895,74.4003231 214.080409,74.4757033 C214.155036,74.5510836 214.457311,74.7772244 214.608071,75.0787455 L215.361874,73.2696191 Z" id="Fill-9" fill="#FFFFFF"></path>
            <path d="M225.613138,75.455496 C225.613138,75.9085314 225.311617,76.2092987 225.085476,76.2854328 C224.859335,76.3600592 224.708575,76.2854328 224.557814,76.0585382 C224.105532,75.6062566 223.728631,75.1547288 222.899448,75.1547288 C222.070265,75.1547288 221.768744,75.8323974 221.768744,76.2854328 C221.768744,76.8877211 221.919505,77.4161368 222.673307,78.7722278 C223.35173,79.9029318 223.728631,80.5813542 223.728631,81.7874384 C223.728631,82.5412411 223.35173,83.5211845 222.296406,84.4257477 C221.617984,85.0287899 220.56266,85.4056912 219.507336,85.4056912 C218.452012,85.4056912 217.84897,84.5772621 217.84897,83.9734661 C217.84897,83.6719451 217.924351,83.370424 218.225872,83.0696568 C218.452012,82.8427621 218.753533,82.8427621 218.979674,83.0696568 C219.356576,83.4465581 220.185759,84.2003607 220.864181,84.2003607 C221.542603,84.2003607 222.145645,83.5211845 222.145645,82.6166213 C222.145645,82.1643397 221.844124,81.3351568 221.165702,80.2044528 C220.48728,79.0737488 220.185759,78.0938054 220.185759,77.6415238 C220.185759,76.5862 220.63804,75.7570171 221.844124,74.7778274 C222.673307,74.0986512 223.50249,73.8725104 223.879392,73.8725104 C225.010096,73.8725104 225.613138,74.7778274 225.613138,75.455496" id="Fill-11" fill="#FFFFFF"></path>
            <path d="M234.20679,75.455496 C234.20679,75.9085314 233.905269,76.2092987 233.679128,76.2854328 C233.452987,76.3600592 233.302226,76.2854328 233.151466,76.0585382 C232.699184,75.6062566 232.322283,75.1547288 231.492346,75.1547288 C230.663917,75.1547288 230.361642,75.8323974 230.361642,76.2854328 C230.361642,76.8877211 230.513157,77.4161368 231.266959,78.7722278 C231.945382,79.9029318 232.397663,80.5813542 232.322283,81.7874384 C232.322283,82.5412411 231.945382,83.5211845 230.890058,84.4257477 C230.210882,85.0287899 229.156312,85.4056912 228.100234,85.4056912 C227.045664,85.4056912 226.441868,84.5772621 226.441868,83.9734661 C226.441868,83.6719451 226.518002,83.370424 226.81877,83.0696568 C227.045664,82.8427621 227.346432,82.8427621 227.572572,83.0696568 C227.949474,83.4465581 228.77941,84.2003607 229.457079,84.2003607 C230.136255,84.2003607 230.738544,83.5211845 230.738544,82.6166213 C230.738544,82.1643397 230.437776,81.3351568 229.759354,80.2044528 C229.080178,79.0737488 228.77941,78.0938054 228.77941,77.6415238 C228.77941,76.5862 229.230938,75.7570171 230.437776,74.7778274 C231.266959,74.0986512 232.095388,73.8725104 232.47229,73.8725104 C233.528367,73.8725104 234.20679,74.7778274 234.20679,75.455496" id="Fill-13" fill="#FFFFFF"></path>
            <path d="M238.955596,82.6924539 C238.729455,83.3701225 238.879462,83.5962633 239.181736,83.5962633 C239.558638,83.5962633 240.689342,82.6924539 242.121567,81.3348553 C244.609116,78.8473065 246.040587,75.6813353 246.945904,74.0237232 C247.548192,73.9475892 248.151988,74.17373 248.301995,74.5506313 C248.001228,75.304434 246.267481,79.7526235 245.136777,82.9932212 C244.986017,83.3701225 244.986017,83.6723974 245.212158,83.6723974 C245.73982,83.6723974 247.171291,82.3909328 247.925094,81.5617499 C248.151988,81.4856158 248.378129,81.6371302 248.453509,81.9386512 C247.775087,83.219362 245.136777,85.4061435 243.704552,85.4061435 C243.252271,85.4061435 242.875369,84.8777278 243.025376,84.4262 L244.909883,79.4503486 L244.835256,79.4503486 C242.875369,81.9386512 239.483258,85.4061435 237.975652,85.4061435 C236.844948,85.4061435 236.694188,84.2754395 237.146469,83.0693552 L239.633264,76.435138 C239.860159,75.9082299 239.860159,75.6067088 239.633264,75.6067088 C239.106356,75.6067088 237.674131,76.8120393 237.071089,77.4912155 C236.769568,77.565842 236.543427,77.3397012 236.618054,77.1143142 C237.29723,75.9836102 240.0863,73.8729627 241.367764,73.8729627 C241.744666,73.8729627 242.347708,74.249864 242.196947,74.7013918 L238.955596,82.6924539 Z" id="Fill-15" fill="#FFFFFF"></path>
            <path d="M257.649751,75.455496 C257.649751,75.9085314 257.34823,76.2092987 257.122089,76.2854328 C256.895948,76.3600592 256.745188,76.2854328 256.594427,76.0585382 C256.142146,75.6062566 255.765244,75.1547288 254.936061,75.1547288 C254.106878,75.1547288 253.805357,75.8323974 253.805357,76.2854328 C253.805357,76.8877211 253.956118,77.4161368 254.709921,78.7722278 C255.388343,79.9029318 255.840625,80.5813542 255.765244,81.7874384 C255.765244,82.5412411 255.388343,83.5211845 254.333019,84.4257477 C253.654597,85.0287899 252.599273,85.4056912 251.543949,85.4056912 C250.488626,85.4056912 249.885584,84.5772621 249.885584,83.9734661 C249.885584,83.6719451 249.960964,83.370424 250.262485,83.0696568 C250.488626,82.8427621 250.790147,82.8427621 251.016288,83.0696568 C251.393189,83.4465581 252.222372,84.2003607 252.900794,84.2003607 C253.579217,84.2003607 254.182259,83.5211845 254.182259,82.6166213 C254.182259,82.1643397 253.880738,81.3351568 253.202315,80.2044528 C252.523893,79.0737488 252.222372,78.0938054 252.222372,77.6415238 C252.222372,76.5862 252.674653,75.7570171 253.880738,74.7778274 C254.709921,74.0986512 255.539104,73.8725104 255.916005,73.8725104 C257.046709,73.8725104 257.649751,74.7778274 257.649751,75.455496" id="Fill-17" fill="#FFFFFF"></path>
            <path d="M52.8414161,11.1562794 C54.801303,11.1562794 56.5350491,13.1915466 56.5350491,16.4328981 L56.5350491,41.5345269 C56.5350491,50.7309194 52.7660358,49.9771167 48.7708817,49.9771167 C44.7757276,49.9771167 44.323446,46.0573428 44.323446,41.4591466 L44.323446,16.4328981 C44.323446,13.1915466 46.0571921,11.1562794 48.017079,11.1562794 L48.017079,9.87481491 L34.448631,9.87481491 L34.448631,11.1562794 C36.408518,11.1562794 38.2176444,13.1915466 38.2176444,16.4328981 L38.2176444,43.5697941 C38.2176444,48.8464127 41.0820945,52.6908063 47.7155579,52.6908063 C54.3490214,52.6908063 58.4195558,52.313905 58.4195558,41.3083861 L58.4195558,16.4328981 C58.4195558,13.1915466 60.1533019,11.1562794 62.1131889,11.1562794 L62.1131889,9.87481491 L52.8414161,9.87481491 L52.8414161,11.1562794" id="Fill-19" fill="#FFFFFF"></path>
            <path d="M340.492965,11.1562794 C342.452852,11.1562794 344.035084,13.1915466 344.035084,16.4328981 L344.035084,41.5345269 C344.035084,50.7309194 340.266071,49.9771167 336.270917,49.9771167 C332.276516,49.9771167 331.824235,46.0573428 331.824235,41.4591466 L331.824235,16.4328981 C331.824235,13.1915466 333.481847,11.1562794 335.442488,11.1562794 L335.442488,9.87481491 L322.0248,9.87481491 L322.0248,11.1562794 C323.984687,11.1562794 325.643053,13.1915466 325.643053,16.4328981 L325.643053,43.5697941 C325.643053,48.8464127 328.507503,52.6908063 335.140213,52.6908063 C341.773676,52.6908063 345.844964,52.313905 345.844964,41.3083861 L345.844964,16.4328981 C345.844964,13.1915466 347.427196,11.1562794 349.387837,11.1562794 L349.387837,9.87481491 L340.416831,9.87481491 L340.416831,11.1562794" id="Fill-21" fill="#FFFFFF"></path>
            <path d="M79.299965,9.87466415 L64.0731512,9.87466415 L64.0731512,11.1561287 C66.0330381,11.1561287 67.691404,13.1913959 67.691404,16.4327473 L67.691404,45.45415 C67.691404,48.6955014 66.0330381,50.6561421 64.0731512,50.6561421 L64.0731512,51.9368529 L81.1844717,51.9368529 C83.9735415,51.9368529 87.1395127,50.3538673 89.0240194,44.7757276 C90.908526,38.971447 91.1346668,34.14711 90.908526,26.8352241 C90.5316247,19.5987185 89.4009207,15.1512828 87.6671746,12.9652551 C85.9334285,10.7792274 83.2197389,9.87466415 79.299965,9.87466415 M80.2045282,49.7508251 C79.6768663,49.9023395 77.3400781,50.1277265 75.3801911,49.9769659 C73.7972055,49.8262054 73.7218253,49.6000646 73.7218253,46.1333262 L73.7218253,16.055846 C73.7218253,12.5883537 74.6263885,11.7591708 77.4154583,11.7591708 C80.8829506,11.7591708 82.3905559,12.7391143 83.5966402,15.8297052 C85.9334285,21.7847463 85.5565271,32.8656454 84.8781047,41.3082353 C84.953485,41.232855 84.0489218,48.6955014 80.2045282,49.7508251" id="Fill-23" fill="#FFFFFF"></path>
            <path d="M104.552354,49.9771167 C102.592467,49.7509759 102.366327,48.8464127 102.366327,45.6804415 L102.366327,31.8104725 C106.738382,32.1873738 107.190664,32.1873738 108.321368,37.9916543 L109.527452,37.9916543 L109.527452,23.5186432 L108.321368,23.5186432 C107.341424,29.0214026 106.813762,29.3229237 102.366327,29.699825 L102.366327,15.5283349 C102.366327,12.3623637 102.592467,11.8347018 104.024692,11.9100821 L106.587621,12.0608426 C112.618043,12.2869834 112.919564,15.9052362 113.296465,18.0158837 L114.804071,18.0158837 L114.804071,9.95019518 L92.5668919,9.95019518 L92.5668919,11.2316597 C94.5267788,11.2316597 96.260525,13.2669269 96.260525,16.5082784 L96.260525,45.529681 C96.260525,48.7710324 94.5267788,50.7309194 92.5668919,50.7309194 L92.5668919,52.0123839 L115.030211,52.0123839 L116.688577,44.3235967 L114.954831,44.3235967 C112.994944,51.1078207 107.567565,50.052497 104.552354,49.9771167" id="Fill-25" fill="#FFFFFF"></path>
            <path d="M363.333035,49.9771167 C361.372395,49.7509759 361.147008,48.8464127 361.147008,45.6804415 L361.147008,31.8104725 C365.518309,32.1873738 365.971345,32.1873738 367.102049,37.9916543 L368.308133,37.9916543 L368.308133,23.5186432 L367.102049,23.5186432 C366.122105,29.0214026 365.594443,29.3229237 361.147008,29.699825 L361.147008,15.5283349 C361.147008,12.3623637 361.448529,11.8347018 362.805374,11.9100821 L365.368303,12.0608426 C371.398724,12.2869834 371.700245,15.9052362 372.077146,18.0158837 L373.584752,18.0158837 L373.584752,9.95019518 L351.422953,9.95019518 L351.422953,11.2316597 C353.38284,11.2316597 355.041206,13.2669269 355.041206,16.5082784 L355.041206,45.529681 C355.041206,48.7710324 353.38284,50.7309194 351.422953,50.7309194 L351.422953,52.0123839 L373.810139,52.0123839 L375.469258,44.398977 L373.735512,44.398977 C371.851006,51.1078207 366.348246,50.052497 363.333035,49.9771167" id="Fill-27" fill="#FFFFFF"></path>
            <g id="Group-31" transform="translate(0.000000, 0.301521)">
                <mask id="mask-2" fill="white">
                    <use xlink:href="#path-1"></use>
                </mask>
                <g id="Clip-30"></g>
                <path d="M30.6042374,0.45243236 L18.9956764,0.45243236 L18.9956764,1.80927716 C22.0108871,1.80927716 22.3124081,4.07068515 21.3324647,6.55823395 C17.4126908,16.3576686 7.68863642,41.2331565 6.48255216,43.7199515 C5.0503271,46.8866765 3.0150599,50.3541688 -0.000150760533,50.3541688 L-0.000150760533,51.6348795 L10.9299879,51.6348795 L10.9299879,50.3541688 C8.44243909,50.3541688 7.68863642,46.7351622 8.89472069,43.7199515 C10.100805,40.7054947 12.2868327,35.428876 12.2868327,35.428876 L23.6692529,35.428876 L23.6692529,44.5498883 C23.6692529,50.0526477 21.709366,50.3541688 18.9202961,50.3541688 L18.9202961,51.6348795 L35.277814,51.6348795 L35.277814,50.3541688 C32.9410257,50.3541688 30.5288572,50.2034083 30.5288572,44.5498883 C30.6042374,41.6100579 30.6042374,0.45243236 30.6042374,0.45243236 M23.8200135,33.5443694 L13.2667761,33.5443694 L23.8200135,7.53817741 L23.8200135,33.5443694" id="Fill-29" fill="#FFFFFF" mask="url(#mask-2)"></path>
            </g>
            <path d="M271.896923,0.753953426 L271.820789,0.753953426 L251.996533,0.753953426 L251.996533,2.11079822 C254.860229,2.11079822 256.744735,3.99530489 256.744735,7.83969848 L256.744735,44.3983739 C256.744735,50.2034083 254.559462,50.7310701 251.996533,50.7310701 L251.996533,52.0125347 L268.35405,52.0125347 L268.35405,50.7310701 C265.413466,50.7310701 263.680474,50.0518939 263.680474,44.474508 L263.680474,29.3984547 L272.423831,29.3984547 C275.212901,29.3984547 277.399682,27.3631875 277.399682,22.7649913 L277.399682,7.23665635 C277.248922,3.39226275 275.439042,0.753953426 271.896923,0.753953426 L271.896923,0.753953426 Z M270.615458,25.25254 C270.615458,26.6093848 270.087796,27.3631875 269.107853,27.3631875 L263.605094,27.3631875 L263.605094,16.2069081 L263.605094,13.643979 L263.605094,2.71384036 L269.107853,2.71384036 C270.087796,2.71384036 270.615458,3.54302329 270.615458,5.12600888 L270.615458,25.25254 Z" id="Fill-32" fill="#FFFFFF"></path>
            <path d="M137.267315,39.2729681 L129.126246,9.87466415 L118.422248,9.87466415 L118.422248,11.1561287 C121.135938,11.1561287 122.191261,12.0606919 122.191261,16.5081276 L122.191261,45.3795235 C122.191261,48.6201211 120.683656,50.5800081 118.422248,50.5800081 L118.422248,51.8614726 L127.920162,51.8614726 L127.920162,50.5800081 C125.734134,50.5800081 124.151148,48.5447409 124.151148,45.3795235 L124.151148,15.0759025 L134.478245,51.8614726 L135.458188,51.8614726 L146.162186,15.1512828 L146.162186,45.3033894 C146.162186,48.5447409 144.5792,50.5046278 142.393173,50.5046278 L142.393173,51.7868461 L156.112381,51.7868461 L156.112381,50.5046278 C153.926353,50.5046278 152.267988,48.4693606 152.267988,45.3033894 L152.267988,16.4327473 C152.267988,13.1913959 153.926353,11.1561287 156.112381,11.1561287 L156.112381,9.87466415 L145.785285,9.87466415 L137.342695,38.5945457" id="Fill-34" fill="#FFFFFF"></path>
            <path d="M210.462006,48.3944326 L203.450887,31.810774 C205.637669,31.2831121 208.501365,30.4539292 208.501365,26.5341553 C208.501365,22.3121066 208.426738,17.940805 208.426738,15.0009746 C208.426738,9.79973617 203.601648,9.79973617 198.70193,9.79973617 L185.812659,9.79973617 L185.812659,11.0812007 C187.771792,11.0812007 189.430911,13.1164679 189.430911,16.3578194 L189.430911,45.379222 C189.430911,48.6205734 187.320264,50.5797066 185.737278,50.5797066 C185.887285,50.5797066 185.661898,50.5797066 185.737278,50.5797066 L185.737278,51.8619249 L199.230346,51.8619249 L199.230346,50.5797066 C197.270459,50.5797066 195.536713,48.5444394 195.536713,45.379222 L195.536713,32.3384359 L197.571226,32.3384359 L204.506965,49.6005169 C204.506965,49.6005169 204.883866,50.6558406 205.562288,51.3335092 C206.239957,52.0126854 207.596802,51.9365514 207.596802,51.9365514 L212.64728,51.9365514 L212.64728,50.6558406 C212.119618,50.6558406 211.59271,50.9566079 210.462006,48.3944326 L210.462006,48.3944326 Z M202.773218,26.0064935 C202.773218,31.0569713 197.42122,30.3785489 195.536713,30.3785489 L195.536713,14.4733127 C195.536713,12.8149468 195.612093,11.9103836 197.119698,11.9103836 C199.984149,11.9103836 202.773218,11.458102 202.773218,15.3778759 L202.773218,26.0064935 Z" id="Fill-36" fill="#FFFFFF"></path>
            <path d="M280.942555,11.1562794 C283.430104,11.1562794 284.560808,13.1915466 284.560808,16.4328981 L284.560808,45.4543007 C284.560808,48.6956522 283.430104,50.6555391 280.942555,50.6555391 L280.942555,51.9370036 L294.284108,51.9370036 L294.284108,50.6555391 C291.796559,50.6555391 290.665855,48.6202719 290.665855,45.4543007 L290.665855,16.4328981 C290.665855,13.1915466 291.796559,11.1562794 294.284108,11.1562794 L294.284108,9.87481491 L280.942555,9.87481491 L280.942555,11.1562794" id="Fill-38" fill="#FFFFFF"></path>
            <path d="M226.517852,26.0063427 C221.918902,23.5941742 220.110529,20.428203 220.110529,17.7145134 C220.110529,16.2069081 220.713571,10.7795289 224.407204,10.7795289 C230.060724,10.8549091 231.79447,18.8452174 232.397512,22.3127097 L233.528216,22.3127097 L233.528216,9.19654328 L232.322132,9.19654328 C232.246752,10.6287683 231.718336,11.0056697 231.040668,11.0056697 C228.93002,10.9302894 228.326224,8.51812088 222.824219,8.74426168 C219.280592,8.89502221 214.909291,11.9856131 214.909291,20.3528227 C214.909291,24.1972163 216.416896,29.5492152 221.090472,32.7905667 C227.949323,37.4641432 230.136104,39.2732696 230.136104,42.8907686 C230.136104,44.3983739 229.683823,50.5803096 224.256444,50.5803096 C220.411296,50.5803096 217.849121,44.2483672 217.321459,41.8361987 L216.416896,37.5395235 L215.210812,37.5395235 L215.210812,52.2386755 L216.492276,52.2386755 C216.642283,51.0325912 216.944558,50.4287953 217.47222,50.4287953 C219.507487,50.4287953 221.542,52.6155768 225.161007,52.5401965 C234.282019,52.389436 235.864251,44.7006488 235.864251,40.4039736 C235.789624,34.3735523 233.000555,29.3230744 226.517852,26.0063427" id="Fill-40" fill="#FFFFFF"></path>
            <path d="M311.772632,30.6796931 L311.772632,31.7350168 C311.772632,31.7350168 313.581758,31.8857774 313.581758,34.8256078 L313.581758,44.7004227 C313.581758,49.9770413 311.772632,50.3539427 308.53128,50.3539427 C305.289929,50.3539427 304.083844,49.1478584 304.083844,45.1527043 L304.083844,16.1313017 C304.083844,13.4176121 305.516069,11.0054435 308.908181,11.0054435 C312.677195,11.0054435 316.672349,14.7744569 316.672349,22.0109624 L318.707616,22.0109624 L318.707616,9.0455566 L317.200011,9.0455566 C317.200011,14.0206542 314.26018,8.89479607 309.058942,8.89479607 C305.289929,8.89479607 302.199338,9.87473953 300.465592,11.8346265 C298.657219,13.8698937 297.827282,16.2820622 297.827282,19.1465123 L297.827282,42.0621133 C297.827282,44.9265635 298.657219,47.338732 300.465592,49.3739992 C302.274718,51.4092664 306.195246,52.4645901 308.757421,52.4645901 C310.265026,52.4645901 312.375674,51.9369283 313.430997,51.4092664 C314.487075,50.8816045 315.466265,50.1278019 316.371582,49.1478584 C318.179954,47.1125912 319.084517,44.6250424 319.084517,41.9113528 L319.084517,34.900988 C319.084517,32.1119182 320.894398,31.8857774 320.894398,31.8857774 L320.894398,30.8304536 L311.772632,30.8304536 L311.772632,30.6796931 Z" id="Fill-42" fill="#FFFFFF"></path>
            <path d="M165.685826,37.0870157 L169.83174,18.1665689 L173.374613,37.0870157 L165.685826,37.0870157 Z M181.817203,47.7156333 L173.977655,9.723979 L172.771571,9.723979 L169.6056,9.723979 L166.439628,9.723979 L166.439628,11.0808238 C169.077938,11.0808238 168.701036,13.1914713 168.248755,15.8297806 L161.389151,46.5849293 C160.559968,50.0524216 159.429264,50.6554637 158.37394,50.6554637 L158.37394,51.9369283 L165.535065,51.9369283 L165.535065,50.6554637 C162.896756,50.6554637 162.821376,48.469436 163.575178,45.2280845 L165.233544,39.1222829 L173.902275,39.1222829 L175.560641,46.6603096 C176.389824,50.0524216 175.032979,50.6554637 173.449993,50.6554637 L173.449993,51.9369283 L184.304752,51.9369283 L184.304752,50.6554637 C183.626329,50.5800835 182.495625,50.3539427 181.817203,47.7156333 L181.817203,47.7156333 Z" id="Fill-44" fill="#FFFFFF"></path>
            <path d="M376.298592,9.87466415 L376.298592,17.9403527 L377.655437,17.9403527 C377.806197,16.3573671 378.183099,13.9451985 379.690704,13.0406353 C381.122175,12.1360721 382.629781,12.1360721 385.042703,12.1360721 L385.042703,45.3795235 C385.042703,48.6201211 383.459717,50.5800081 381.499077,50.5800081 L381.499077,51.8614726 L394.842138,51.8614726 L394.842138,50.5800081 C392.882251,50.5800081 391.223885,48.5447409 391.223885,45.3795235 L391.223885,12.2114524 L391.223885,12.1360721 C393.636053,12.1360721 395.143659,12.0606919 396.57513,13.0406353 C398.008109,13.9451985 398.38501,16.3573671 398.611151,17.9403527 L399.967242,17.9403527 L399.967242,9.87466415 L376.298592,9.87466415 Z" id="Fill-46" fill="#FFFFFF"></path>
        </g>
    </g>
</svg>