<?xml version="1.0" encoding="utf-8"?>
<!-- Generator: Adobe Illustrator 22.0.1, SVG Export Plug-In . SVG Version: 6.00 Build 0)  -->
<svg role="img" version="1.1" id="Calque_1" xmlns="http://www.w3.org/2000/svg" xmlns:xlink="http://www.w3.org/1999/xlink" x="0px" y="0px"
	 viewBox="0 0 362.5 69.5" style="enable-background:new 0 0 362.5 69.5;" xml:space="preserve" aria-labelledby="brandLogo">
	 <title id="brandLogo">A.Lange und Söhne</title>
<style type="text/css">
	.logoPath{
		fill:#fff;
	}
</style>
<g id="g4222">
	<g id="g4228" transform="translate(236.7003,779.4093)">
		<path id="path4230" class="logoPath" d="M-207.1-729.7c0.9-0.4,2.4-0.5,3,0.8
			c0.6,1.2-0.3,2.4-1.2,2.9c-0.9,0.4-2.4,0.5-3-0.8C-208.9-728.1-208-729.3-207.1-729.7 M-125.6-754.1
			C-125.6-754.1-125.7-754-125.6-754.1l0.9-0.1c0,0,0,0-0.1-0.1l-2.8-12.1c-0.6-2.4,0-3.9,2.8-4.6c0,0,0,0,0.6-0.1c0,0,0.2,0,0.3,0
			l-0.3-1.3c-0.1,0.1-0.3,0.2-0.3,0.2l-0.6,0.1l-8.9,2.1l-0.9,0.2c0,0-0.2,0-0.3,0l0.3,1.3c0.1-0.1,0.3-0.2,0.3-0.2l0.7-0.2
			c1-0.2,3.9-1.1,4.8,2.8l1.4,6.1l-15-7.8c-0.2-0.1-0.2-0.2-0.2-0.2s-0.1,0.1-0.3,0.1c-0.2,0-6.9,1.6-7,1.7c0,0-0.2,0-0.3,0l0.3,1.3
			c0.1-0.1,0.3-0.2,0.3-0.2l0.6-0.1c2.3-0.5,3.6,0.5,4.2,2.9l1.5,6.3c0.6,2.7,0.8,4.5-2.3,5.2l-0.6,0.1c0,0-0.2,0-0.3,0l0.3,1.3
			c0.1-0.1,0.3-0.1,0.3-0.1l0.6-0.1l9.2-2.2l0.5-0.1c0,0,0.2,0,0.3,0l-0.3-1.3c-0.1,0.1-0.3,0.2-0.3,0.2l-0.6,0.1
			c-3.6,0.8-4.7-0.6-5.3-3l-1.8-7.7L-125.6-754.1z M-106.2-757c-2.3,0.3-6.7,0.6-9.8-1.4c-2.5-1.7-3.5-4.1-3.8-5.9
			c-0.3-1.8,0-4.3,1.9-6.6c2.4-2.9,6.7-4,9-4.4c2.7-0.4,4.3-0.2,5.4-0.1c0.8,0.1,2.9,0.5,3.7,0c0.4-0.3,0.6-0.7,0.6-1.1
			c0,0,0-0.1-0.1-0.1l1.1-0.2c0,0-0.1,0.1-0.1,0.3l0.9,6.2c0,0.2,0.1,0.2,0.1,0.2l-1.4,0.2c0.1-0.1,0-0.3,0-0.3c0-0.3-0.4-2-2.9-3.3
			c-2.2-1.2-5.1-1.1-7.3-0.7c-1.8,0.3-4.3,1.2-5.5,3.6c-0.9,1.7-0.7,4.1-0.5,5.4c0.2,1.4,0.8,3.6,2.1,5c1.8,1.9,4.5,2.1,6.3,1.8
			c1.9-0.3,3.5-1.1,4.5-2.1c1.2-1.2,1.3-2.3,1.2-3.2c-0.3-2.3-0.9-3-3.6-2.6l-1.2,0.2c0,0-0.2,0-0.2,0.1l-0.2-1.4
			c0,0,0.1,0.1,0.3,0.1c1.6-0.2,11-1.6,12.6-1.9c0.2,0,0.2-0.1,0.2-0.1l0.2,1.4c-0.1-0.1-0.3,0-0.3,0l-0.9,0.1
			c-2.5,0.4-3.1,1-2.7,3.5l0.8,5.1c0,0,0,0.2,0.1,0.3l-1.1,0.2c0,0,0-0.1,0-0.1c-0.1-0.5-1.1-1.4-2.5-1.1c-1,0.2-1.9,0.9-2.9,1.3
			C-103.3-757.8-104.5-757.3-106.2-757 M38-768.7c-0.4,1.3,0.6,2.2,1.5,2.5c0.9,0.3,2.3,0.1,2.7-1.1c0.4-1.3-0.6-2.2-1.5-2.5
			C39.8-770.1,38.4-770,38-768.7 M30.6-771.1c-0.4,1.3,0.6,2.2,1.5,2.5c0.9,0.3,2.3,0.1,2.7-1.1c0.4-1.3-0.6-2.2-1.5-2.5
			C32.4-772.5,31-772.4,30.6-771.1 M35.8-749.8c1.5-1.2,2.4-3.5,2.8-5c0.4-1.3,1.1-3.6,0.6-5.4c-0.7-2.5-2.4-3.5-4.4-4.1
			c-2-0.6-4-0.9-6,0.7c-1.5,1.2-2.3,3.4-2.8,4.7c-0.5,1.5-1.2,3.8-0.7,5.7c0.7,2.6,2.4,3.5,4.5,4.1
			C31.8-748.4,33.8-748.2,35.8-749.8 M39-747.9c-3.4,1.5-7.3,0.6-9.5-0.1c-2.2-0.7-5.9-2.3-7.7-5.5c-1.4-2.4-1.5-4.6-0.7-7.1
			c0.6-1.7,1.9-3.8,4.7-5c3.4-1.5,7.3-0.6,9.5,0.1c2.2,0.7,5.9,2.3,7.7,5.6c1.5,2.6,1.4,5.1,0.8,6.8C42.9-750.7,41.5-749,39-747.9
			 M83.3-743l-3.5,7.1c-1.1,2.2-1.1,4.1,2.2,5.7l0.5,0.3c0,0,0.2,0.1,0.3,0l-0.6,1.2c-0.1-0.1-0.2-0.2-0.2-0.2l-0.5-0.2l-8.5-4.1
			l-0.5-0.3c0,0-0.2-0.1-0.3-0.1l0.6-1.2c0.1,0.1,0.2,0.2,0.2,0.2l0.6,0.3c2.8,1.4,3.9-0.1,5.1-2.6l2.9-5.9c1.1-2.2,0.8-3.9-1.4-4.9
			l-0.6-0.3c0,0-0.2-0.1-0.3,0l0.6-1.2c0.1,0.1,0.2,0.2,0.2,0.2c0.2,0.1,6.3,3.1,6.5,3.2c0.2,0.1,0.3,0.1,0.3,0.1s0,0.1,0.1,0.3
			l6.7,15.5l2.7-5.6c1.7-3.6-1.1-4.7-2-5.2l-0.7-0.3c0,0-0.1-0.1-0.3,0l0.6-1.2c0.1,0.1,0.2,0.2,0.2,0.2l0.8,0.4l8.2,4l0.5,0.3
			c0,0,0.2,0.1,0.3,0.1l-0.6,1.2c-0.1-0.1-0.2-0.2-0.2-0.2c-0.6-0.3-0.5-0.3-0.5-0.3c-2.5-1.2-4-0.4-5.1,1.8l-5.5,11.2
			c0,0,0,0,0,0.1l-0.9-0.4c0,0,0.1,0,0.1,0L83.3-743L83.3-743z M-3-723.8c0-0.9,0.2-1.6,1.6-1.7c0.1,0,0.2,0,0.3,0h0.3
			c0.1,0,0.2,0,0.2,0v-0.8c0,0-0.1,0-0.2,0h-6.9c-0.1,0-0.2,0-0.2,0v0.8c0,0,0.1,0,0.2,0h0.3c0.1,0,0.2,0,0.3,0
			c1.4,0.1,1.6,0.8,1.6,1.7v4.8c0,0.9-0.2,1.6-1.6,1.7c-0.1,0-0.2,0-0.3,0h-0.4c-0.1,0-0.2-0.1-0.2-0.1v0.8c0,0,0.1,0,0.2,0h7
			c0.1,0,0.2,0,0.2,0v-0.8c0,0-0.1,0-0.2,0h-0.3c-0.1,0-0.2,0-0.3,0c-1.4-0.1-1.6-0.8-1.6-1.7C-3-719.1-3-723.8-3-723.8 M1.9-711
			l5.9-10.5c0,0,0,0,0,0H6.4c0,0,0,0,0,0L0.5-711c0,0,0,0,0,0L1.9-711C1.9-711,1.9-711,1.9-711 M19.8-719.8c1.3,0.9,1.3,1.9,1.3,2
			c0,0.1-0.1,0.1-0.1,0.1H22c-0.1-0.1-0.1-0.1-0.1-0.1v-3.5c0,0,0-0.1,0.1-0.1h-0.7c0,0,0,0,0,0c0,0.2-0.2,0.5-0.5,0.6
			c-0.4,0.1-1-0.1-1.9-0.3c-0.6-0.2-1.6-0.4-2.9-0.4c-0.8,0-2,0.1-2.9,0.6c-1.5,0.7-1.7,1.9-1.7,2.4c0,1.6,0.8,2.1,1.4,2.5
			c0.8,0.4,2.1,0.7,4.1,0.9c2,0.2,3.4,0.3,3.4,1.6c0,1.4-1.8,1.7-3,1.7c-0.9,0-2.3-0.1-3.8-1.1c-1-0.7-1.5-1.8-1.5-2.4
			c0,0,0-0.1,0.1-0.1h-0.9c0,0,0,0,0,0.1v4c0,0.1,0,0.1,0,0.1h0.7c0,0,0,0,0,0c0.1-0.1,0.4-0.5,0.7-0.6c0.5-0.2,1-0.1,1.8,0.2
			c0.9,0.3,2,0.5,3,0.6c1.8,0,4.6-0.4,5.2-2.4c0.3-1.1,0-2.4-1-3.1c-1-0.6-2-0.8-4.2-1.1c-1.8-0.2-3.7-0.2-3.7-1.5
			c0-1.1,1.3-1.6,2.5-1.6C17.2-720.8,18.7-720.6,19.8-719.8 M-223.1-723.4l1.9,0.9c1,0.4,1.5,2.2-0.2,3.3c-0.3,0.2,0,0-1.2,0.7
			c-0.1,0.1-0.3,0.1-0.3,0.1l0.7,1.2c0-0.1,0.2-0.2,0.2-0.2c1.5-0.9,10.2-6.1,11.6-6.9c0,0,0.1-0.1,0.3-0.1l-0.7-1.2
			c0,0,0,0.1-0.2,0.2l-0.5,0.3c-1.4,0.8-2.2,1.2-4.9,0l-15.5-7.1c0,0,0-0.1,0-0.1l-0.8,0.5c0,0,0,0,0.1,0c0,0-0.1,14.3,0,14.8
			c0.1,2.4-0.6,4.8-2.7,6l-0.5,0.3c-0.1,0.1-0.3,0.1-0.3,0.1l0.7,1.2c0-0.1,0.2-0.2,0.2-0.2l9.3-5.5c0,0,0.1-0.1,0.3-0.1l-0.7-1.2
			c0,0,0,0.1-0.2,0.2l-0.6,0.4c-1.1,0.7-2.1,1-2.8,0.8c-0.5-0.2-1.2-0.8-1.2-2c0-0.4,0-1.5,0-1.5L-223.1-723.4L-223.1-723.4z
			 M-231.3-727.2l6.9,3.3l-6.9,4.1C-231.3-719.8-231.3-727.2-231.3-727.2z M-67.2-761.5c0,0,0,0.2,0.1,0.3c-0.1,0-0.3,0-0.3,0
			 M-88.9-759.9l-0.6,0c-0.2,0-0.3,0.1-0.3,0.1v0l-0.1-1.3c0,0,0.1,0.1,0.3,0.1l0.6,0c0.2,0,0.3,0,0.5,0c2.3-0.3,2.8-1.7,2.7-3.2
			l-0.5-8.7c-0.1-1.6-0.8-2.9-3.1-2.9c-0.2,0-0.3,0-0.5,0l-0.5,0c-0.2,0-0.3,0.1-0.3,0.1l-0.1-1.3h0c0,0,0.1,0.1,0.3,0.1
			c0,0,0.2,0,0.6,0c3.2-0.2,19.2-1.2,21.5-1.3c0,0,0.2,0,0.3-0.1c0,0.1,0,0.3,0,0.3l0.3,5.6l0,0.5c0,0.2,0.1,0.3,0.1,0.3l-1.3,0.1
			c0,0,0.1-0.1,0.1-0.3c0-0.6-0.3-1.7-0.9-2.4c-1.5-2-3.6-2.4-5-2.4c-1.3,0-3.2,0.1-3.2,0.1l-4,0.2c0,0,0.4,6.7,0.4,6.7l1.7-0.1
			c1.8-0.2,3.1-0.5,3.9-1.5c0.6-0.8,0.6-2,0.6-2.5c0-0.2-0.1-0.3-0.1-0.3l1.3-0.1c0,0-0.1,0.1-0.1,0.3l0,0.5l0.5,7.5l0,0.5
			c0,0.2,0.1,0.3,0.1,0.3l-1.4,0.1c0,0,0.1-0.1,0.1-0.3c0-0.4-0.1-1.7-0.9-2.4c-1-0.9-2.3-1.2-4-1.1l-1.7,0.1l0.4,7l3.9-0.2
			c0.6,0,2.3-0.1,3.7-0.5c1.3-0.3,1.9-0.6,2.7-1.4c0.9-0.7,1.5-1.7,1.8-2.7c0.1-0.4,0.3-1.1,0.3-1.8c0-0.2-0.1-0.3-0.1-0.3l1.3-0.1
			c0,0-0.1,0.1-0.1,0.3l0,0.5l0.4,6.2c0,0,0,0.2,0.1,0.3c-0.1,0-0.3,0-0.3,0L-88.9-759.9L-88.9-759.9z M44.8-745.4
			c-0.2-0.1-0.3-0.2-0.3-0.2l-0.5,1.3c0,0,0.1,0,0.3,0l11.6,4.4c0.2,0.1,0.2,0.2,0.2,0.2l0.5-1.3c0,0-0.2,0-0.3,0
			c0,0-0.8-0.3-0.9-0.4c-2.1-0.9-2.2-2.4-1.6-3.9c0,0,1.4-3.7,1.4-3.7l9.9,3.8l-1.4,3.7c-0.6,1.5-1.6,2.5-3.8,1.8
			c-0.2,0-1-0.4-1-0.4c-0.2-0.1-0.3-0.2-0.3-0.2l-0.5,1.3c0,0,0.2,0,0.3,0l11.6,4.4c0.2,0.1,0.3,0.2,0.3,0.2l0.5-1.3
			c0,0-0.2,0-0.3,0c0,0-0.9-0.3-1-0.4c-2.1-0.9-2.2-2.4-1.6-3.9l3.1-8.2h0h0c0.5-1.5,1.6-2.5,3.8-1.8c0.2,0,1,0.3,1,0.3
			c0.2,0.1,0.3,0.2,0.3,0.2l0.5-1.3c0,0-0.1,0-0.3,0l-11.5-4.4v0c-0.2-0.1-0.3-0.2-0.3-0.2l-0.5,1.3c0,0,0.1,0,0.3,0
			c0,0,0.8,0.3,1,0.4c2.1,1,2.2,2.4,1.7,3.9l-1.3,3.4l-9.9-3.7c0,0,1.3-3.4,1.3-3.4c0.6-1.5,1.6-2.5,3.8-1.8c0.2,0,1,0.3,1,0.3
			c0.2,0.1,0.3,0.2,0.3,0.2l0.5-1.3c0,0-0.2,0-0.3,0c-0.2-0.1-11.4-4.3-11.5-4.4c-0.2-0.1-0.2-0.2-0.2-0.2l-0.5,1.3c0,0,0.1,0,0.3,0
			c0,0,0.8,0.3,1,0.4c2.1,0.9,2.2,2.4,1.6,3.9l-3.1,8.2c-0.6,1.5-1.6,2.5-3.8,1.8C45.8-745.1,44.8-745.4,44.8-745.4 M12.4-768.2
			c1.9,2.1,1.7,3.8,1.6,4.1c0,0.2-0.1,0.2-0.1,0.2l1.4,0.3c-0.1-0.1,0-0.3,0-0.3l1.3-6.2c0,0,0-0.1,0.2-0.2l-1.1-0.2c0,0,0,0,0,0.1
			c-0.2,0.4-0.5,0.8-1.2,0.9c-0.9,0.2-2.5-0.9-3.2-1.3c-0.8-0.4-2.3-1.3-5-1.9c-1.8-0.4-3.5-0.3-5.2,0.1c-3.1,0.8-3.7,2.9-3.9,3.7
			c-0.6,2.7,0.9,4,1.6,4.7c1.2,1.1,3.4,1.9,6.8,3c3.4,1.1,6.1,1.7,5.5,4.3c-0.5,2.7-3.9,2.3-6.1,1.9c-1.8-0.4-4.3-1.3-6.3-3.4
			c-1.5-1.6-1.9-3.8-1.8-4.9c0,0,0-0.2,0.2-0.2l-1.4-0.3c0,0,0.1,0.1,0,0.3l-1.5,7.2c0,0.2-0.1,0.2-0.1,0.2l1.1,0.2c0,0,0-0.1,0-0.1
			c0.2-0.2,0.8-0.8,1.5-0.9c1.1-0.2,1.9,0.4,3,1c1.6,0.9,3.1,1.6,5.1,2.1c3.2,0.7,8.3,1,10-2.3c0.9-1.8,0.9-4.2-0.7-5.7
			c-1.5-1.4-3.3-2.1-7.1-3.3c-3.4-1.1-6.5-1.8-6-4.2c0.4-2,2.9-2.5,5-2C8-771.1,10.7-770.1,12.4-768.2 M-194.3-746.1
			c-0.6-1.5-0.5-2.9,1.5-4c0.1-0.1,0.3-0.1,0.4-0.2l0.5-0.2h0c0.2-0.1,0.3,0,0.3,0l-0.5-1.2c0,0-0.1,0.1-0.2,0.2
			c-11.5,4.8,0.5-0.2-11.3,4.8c-0.2,0.1-0.3,0-0.3,0h0l0.5,1.2c0,0,0.1-0.1,0.2-0.2l0.5-0.2c0.1-0.1,0.3-0.1,0.5-0.2
			c2.2-0.7,3.3,0.2,3.9,1.7l3.4,8.1c0.6,1.5,0.5,2.9-1.5,3.9c-0.1,0.1-0.3,0.1-0.4,0.2l-0.6,0.2c-0.2,0.1-0.3,0-0.3,0l0.5,1.2
			c0,0,0.1-0.1,0.2-0.2l19.8-8.3c0,0,0.2-0.1,0.3-0.1c-0.1-0.1-0.2-0.3-0.2-0.3l-2.9-7c-0.1-0.2,0-0.3,0-0.3l-1.2,0.5
			c0,0,0.1,0.1,0.2,0.2c0.2,0.6,0.4,1.3,0.4,2.5c0,1.7-0.6,3.4-1.9,4.6c-0.9,0.8-1.9,1.5-3.3,2.2c-0.2,0.1-1.8,0.8-1.8,0.8l-2,0.8
			L-194.3-746.1z M-160.7-750.6l1.6,1.2c0.8,0.6,1,2.5-1,3.1c-0.3,0.1,0,0-1.4,0.5c-0.2,0.1-0.3,0-0.3,0l0.4,1.3
			c0.1-0.1,0.2-0.2,0.2-0.2c1.7-0.5,11.3-3.7,12.9-4.2c0,0,0.1-0.1,0.3,0l-0.4-1.3c0,0-0.1,0.1-0.2,0.2l-0.6,0.2
			c-1.5,0.5-2.4,0.7-4.8-1l-13.6-10.3c0,0,0-0.1,0-0.1l-0.9,0.3c0,0,0,0,0.1,0.1c0,0-3.2,14-3.3,14.5c-0.4,2.4-1.6,4.5-4,5.3
			l-0.5,0.2c-0.2,0.1-0.3,0-0.3,0l0.4,1.3c0.1-0.1,0.2-0.2,0.2-0.2l10.3-3.4c0,0,0.1-0.1,0.3,0l-0.4-1.3c0,0,0,0.1-0.2,0.2l-0.7,0.2
			c-1.2,0.4-2.3,0.5-2.9,0.1c-0.4-0.3-1-1-0.7-2.2c0.1-0.4,0.3-1.4,0.3-1.4L-160.7-750.6L-160.7-750.6z M-167.8-756.2l6,4.7
			l-7.6,2.5C-169.5-749-167.8-756.2-167.8-756.2z M116.3-710c0,0-0.1,0.2-0.1,0.3c-0.1-0.1-0.2-0.2-0.2-0.2 M97.6-721.1l-0.5-0.3
			c-0.2-0.1-0.3-0.1-0.3-0.1l0.7-1.1c0,0,0.1,0.1,0.2,0.2l0.6,0.3c0.1,0.1,0.3,0.2,0.4,0.2c2,1.1,3.3,0.3,4.1-1.1l4.6-7.5
			c0.8-1.3,1-2.8-0.9-4.1c-0.1-0.1-0.3-0.2-0.4-0.3l-0.5-0.3c-0.1-0.1-0.3-0.1-0.3-0.1l0.7-1.2c0,0,0.1,0.1,0.2,0.2
			c0,0,0.2,0.1,0.5,0.3c2.7,1.7,16.4,10.1,18.3,11.2c0,0,0.2,0.1,0.3,0.1c-0.1,0.1-0.2,0.2-0.2,0.2l-2.9,4.8l-0.3,0.4
			c-0.1,0.1-0.1,0.3-0.1,0.3l-1.1-0.7c0,0,0.1-0.1,0.2-0.2c0.3-0.5,0.7-1.6,0.6-2.4c-0.1-2.5-1.6-4-2.8-4.9c-1-0.8-2.7-1.8-2.7-1.8
			l-3.4-2.1c0,0-3.5,5.7-3.5,5.7l1.4,0.9c1.6,0.9,2.8,1.4,4,1c1-0.3,1.7-1.3,1.9-1.7c0.1-0.1,0.1-0.3,0.1-0.3l1.1,0.7
			c0,0-0.1,0.1-0.2,0.2l-0.3,0.5l-3.9,6.5l-0.3,0.4c-0.1,0.1-0.1,0.3-0.1,0.3l-1.2-0.7c0,0,0.1-0.1,0.2-0.2c0.2-0.3,0.8-1.4,0.6-2.4
			c-0.3-1.3-1.2-2.2-2.7-3.2l-1.4-0.9l-3.7,6l3.3,2c0.5,0.3,2,1.2,3.3,1.7c1.2,0.4,1.9,0.5,3,0.4c1.1-0.1,2.2-0.6,3-1.1
			c0.3-0.2,0.9-0.7,1.2-1.3c0.1-0.1,0.1-0.3,0.1-0.3l1.1,0.7c0,0-0.1,0.1-0.2,0.2l-0.3,0.4l-3.2,5.3c0,0-0.1,0.2-0.1,0.3
			c-0.1-0.1-0.2-0.2-0.2-0.2L97.6-721.1L97.6-721.1z M28.4-714.5c-0.1,0.2-0.3,0.5-0.4,0.6c-0.3,0.6-0.2,1,0,1.3
			c0.3,0.3,0.8,0.4,1.5,0.4h0.2c0.1,0,0.1,0,0.1,0v0.8c-0.1,0-0.1,0-0.1,0H24c0,0-0.1,0-0.1,0v-0.8c0,0,0,0,0.1,0h0.3
			c0.8,0,1.4-0.3,1.9-0.7c0.5-0.4,1-1.1,1.1-1.4l4.2-7c0,0,0,0,0,0h0.8c0,0,0,0,0,0l5.3,7.7c0.9,1.3,1.4,1.3,2.3,1.3l0.2,0
			c0.1,0,0.1,0,0.1,0v0.8c-0.1,0-0.1,0-0.1,0h-7.5c0,0-0.1,0-0.1,0v-0.8c0,0,0,0,0.1,0h0.8c0.6,0,1-0.3,1.1-0.7
			c0.2-0.4-0.1-0.8-0.3-1l-0.4-0.6H28.4L28.4-714.5z M30.9-718.7l-2.1,3.4h4.4L30.9-718.7L30.9-718.7z M-37-763.8
			c-1.9,0.7-5.2,1.1-6.3-0.8c-1.1-1.9,1.7-3.9,2.1-4.3c1-0.8,2.5-1.6,4.4-2.6c1.5,2.3,2.5,4.1,3.4,5.7
			C-34.4-765.1-35.5-764.4-37-763.8 M-39-776.8c2.5,0.6,8.5,1.2,8.5,1.2s-3.1,0.8-6.2,2.1C-38.1-775.6-39-776.8-39-776.8
			 M-23.5-764.6c1,0.1,1.9-0.6,2-1.7c0.2-2.4-2.9-3.2-4.7-3.2c-2.2,0-3.6,1.1-4.7,1.9c-0.5,0.3-0.9,0.7-1.4,1l0,0
			c-0.7-1.1-3.3-5.2-3.4-5.4c0.2-0.1,0.5-0.2,0.7-0.3c4.7-2.2,6.7-2.5,9.6-2.8l-0.1-1.3c-8-0.8-8-0.9-10.8-1.2
			c-3.7-0.5-4.1-0.9-5.2-1.7l-0.7,0.9c1.7,1.5,3.6,4.3,4.3,5.4c-1.3,0.5-2.7,1.2-4.3,2.1c-1.2,0.6-3.1,1.7-4.5,2.8
			c-1.2,0.9-2.2,1.8-2.4,3.6c-0.3,2.4,2,4,4,4.3c3,0.5,5.8-0.3,8.1-1.5c2.1-1.1,3.2-1.9,4.4-2.7c1.6,2.4,3.8,5.4,7.3,5.6
			c1.1,0.1,1.6-0.1,2-0.3l-0.1-2.6c-0.2,0.1-1,0.7-2.8,0.6c-2.3-0.2-4.2-2.5-5.4-4.2c0.6-0.5,1.3-1,2.1-1.6c2.4-1.7,4.2-0.5,4.2-0.5
			C-25.9-765.4-24.3-764.7-23.5-764.6 M-154.5-720.8c0.8,0,2.8,0,4.1,1c1.3,0.9,1.3,1.9,1.3,2c0,0.1,0,0.1,0,0.1h0.9
			c-0.1-0.1-0.1-0.1-0.1-0.1v-3.5c0,0,0-0.1,0.1-0.1h-0.7c0,0,0,0,0,0.1c0,0.2-0.2,0.5-0.5,0.6c-0.4,0.1-1-0.1-1.9-0.3
			c-0.7-0.2-1.6-0.4-3.2-0.4c-1.3,0-3.7,0.3-5.2,1.7c-1.2,1.1-1.6,2.4-1.6,3.4c0,1,0.4,2.4,1.6,3.5c1.5,1.3,3.9,1.6,5.2,1.6
			c2.1,0,3.4-0.9,4.3-0.9c0.8,0,1.3,0.5,1.3,0.8c0,0,0,0,0,0h0.7c0,0-0.1,0-0.1-0.1l0-2.9c0-1.4,0.4-1.7,1.8-1.7h0.5
			c0.1,0,0.1,0,0.1,0v-0.8c-0.1,0.1-0.1,0-0.1,0h-7.2c0,0-0.1,0-0.1,0v0.8c0,0,0,0,0.1,0h0.7c1.5,0,1.8,0.4,1.8,1.7
			c0,1.7-2,2.4-3.7,2.4c-1,0-2.3-0.4-3.1-1.5c-0.6-0.9-0.7-2.2-0.7-2.9c0-0.8,0.1-2.1,0.7-2.9C-156.8-720.4-155.6-720.7-154.5-720.8
			 M-131.5-711.7c0,0,0,0.1,0,0.2c0,0-0.2,0-0.2,0h-12.1c-0.1,0-0.2,0-0.2,0h0v-0.8c0,0,0.1,0,0.2,0h0.4c0.1,0,0.2,0,0.3,0
			c1.4-0.1,1.6-0.8,1.6-1.7v-4.8c0-0.9-0.2-1.6-1.6-1.7c-0.1,0-0.2,0-0.3,0h-0.3c-0.1,0-0.2,0-0.2,0v-0.8c0,0,0.1,0,0.2,0h6.9
			c0.1,0,0.2,0,0.2,0v0.8c0,0-0.1,0-0.2,0h-0.3c-0.1,0-0.2,0-0.3,0c-1.4,0.1-1.6,0.8-1.6,1.7v6.5h2.4c0.7,0,2-0.1,3.1-1
			c1.2-1,1.2-2.1,1.2-2.5c0-0.1,0-0.2,0-0.2h0.8c0,0,0,0.1,0,0.2V-711.7c0,0,0,0.1,0,0.2 M-57-720.4h-0.6c-1.3,0-2,0.4-2.6,1
			c-0.9,0.9-0.9,1.9-1,2.4c0,0,0,0.1,0,0.1h-0.8c0,0,0,0,0-0.1v-3.9c0,0,0-0.1,0-0.2c0.1,0,0.2,0,0.2,0h12c0,0,0.1,0,0.2,0
			c0,0.1,0,0.2,0,0.2v3.9c0,0.1,0.1,0.1,0.1,0.1h-0.8c0.1-0.1,0-0.1,0-0.1c0-0.5-0.1-1.5-0.9-2.4c-0.5-0.6-1.3-1-2.6-1h-0.6v6.5
			c0,0.9,0.2,1.6,1.6,1.7c0.1,0,0.2,0,0.3,0h0.3c0.1,0,0.2,0,0.2,0v0.8c0,0-0.1,0-0.2,0h-7c-0.1,0-0.2,0-0.2,0h0v-0.8
			c0,0,0.1,0,0.2,0h0.4c0.1,0,0.2,0,0.3,0c1.4-0.1,1.6-0.8,1.6-1.7v-4.5L-57-720.4L-57-720.4z M-66.2-718.3l0,3.2
			c-0.1,3.6-3.7,3.9-4.6,4c-1.9,0.1-6.3-0.1-6.3-4c0-1.6,0-3.5,0-3.5c0-1.4-0.4-1.8-1.9-1.9h-0.5c-0.1,0-0.1,0-0.1,0v-0.8
			c0.1,0,0.1,0,0.1,0h7.4c0,0,0.1,0,0.1,0v0.8c0,0,0,0-0.1,0h-0.5c-1.5,0-1.9,0.5-1.9,1.9l0,3.4c0,2.9,2.3,3.2,3.7,3.2
			c1.3,0,2.5-0.5,3.2-1.6c0.3-0.5,0.4-0.9,0.4-1.3c0-0.2,0-0.6,0-0.9l0-2.5c0-0.9-0.3-1.3-0.6-1.6c-0.5-0.4-1.2-0.5-1.5-0.5h-0.4
			c-0.1,0-0.1,0-0.1,0v-0.8c0.1,0,0.1,0,0.1,0h6c0,0,0.1,0,0.1,0v0.8c0,0,0,0-0.1,0h-0.4c-0.2,0-0.9,0.1-1.5,0.5
			C-65.9-719.6-66.2-719.2-66.2-718.3 M-73.3-724.8c-0.5,0-1.2,0.3-1.2,1.1c0,0.7,0.7,1.1,1.2,1.1c0.5,0,1.2-0.3,1.2-1.1
			C-72-724.4-72.7-724.8-73.3-724.8 M-68.6-724.8c-0.5,0-1.2,0.3-1.2,1.1c0,0.7,0.7,1.1,1.2,1.1s1.2-0.3,1.2-1.1
			C-67.4-724.4-68.1-724.8-68.6-724.8 M-42.1-720.4h-0.6c-1.3,0-2,0.4-2.6,1c-0.9,0.9-0.9,1.9-0.9,2.4c0,0,0,0.1,0,0.1h-0.9
			c0,0,0.1,0,0.1-0.1v-3.9c0,0,0-0.1,0-0.2c0,0,0.2,0,0.2,0h12c0,0,0.1,0,0.2,0c0,0.1,0,0.2,0,0.2v3.9c0,0.1,0,0.1,0,0.1h-0.8
			c0-0.1,0-0.1,0-0.1c0-0.5-0.1-1.5-0.9-2.4c-0.5-0.6-1.3-1-2.6-1h-0.6v6.5c0,0.9,0.2,1.6,1.6,1.7c0.1,0,0.2,0,0.3,0h0.3
			c0.1,0,0.2,0,0.2,0v0.8c0,0-0.1,0-0.2,0h-7c-0.1,0-0.2,0-0.2,0h0v-0.8c0,0,0.1,0,0.2,0h0.4c0.1,0,0.2,0,0.3,0
			c1.4-0.1,1.6-0.8,1.6-1.7v-4.5L-42.1-720.4L-42.1-720.4z M-19.5-711.7c0,0,0,0.1,0,0.2c-0.1,0-0.2,0-0.2,0h-12.5
			c-0.1,0-0.2,0-0.2,0v-0.8c0,0,0.1,0,0.2,0h0.4c0.1,0,0.2,0,0.3,0c1.4-0.1,1.6-0.8,1.6-1.7v-4.8c0-0.9-0.2-1.6-1.6-1.7
			c-0.1,0-0.2,0-0.3,0h-0.3c-0.1,0-0.2,0-0.2,0v-0.8c0,0,0.1,0,0.2,0h12.5c0,0,0.1,0,0.2,0c0,0.1,0,0.2,0,0.2v3.5c0,0.1,0,0.2,0,0.2
			h-0.8c0,0,0-0.1,0-0.2c0-0.3-0.2-0.9-0.4-1.3c-0.6-1-1.5-1.3-1.7-1.4c-0.7-0.3-1.6-0.2-2.1-0.2h-2.8v3.7h0.8c1,0,1.7-0.1,2.2-0.7
			c0.4-0.4,0.4-1.2,0.4-1.4c0-0.1,0-0.2,0-0.2h0.8c0,0,0,0.1,0,0.2v4.9c0,0.1,0,0.2,0,0.2H-24c0,0,0-0.1,0-0.2c0-0.2,0-1-0.4-1.4
			c-0.5-0.6-1.2-0.7-2.2-0.7h-0.8v3.9h2.8c0.5,0,1.4,0,2.1-0.2c0.3-0.1,1.1-0.4,1.7-1.4c0.3-0.5,0.4-1.3,0.4-1.6c0-0.1,0-0.2,0-0.2
			h0.8c0,0,0,0.1,0,0.2V-711.7c0,0,0,0.1,0,0.2 M-103.3-719.8c1.3,0.9,1.3,1.9,1.3,2c0,0.1,0,0.1,0,0.1h0.9
			c-0.1-0.1-0.1-0.1-0.1-0.1v-3.5c0,0,0-0.1,0.1-0.1h-0.7c0,0,0,0,0,0.1c0,0.2-0.2,0.5-0.5,0.6c-0.4,0.1-1,0-1.9-0.3
			c-0.6-0.2-1.6-0.4-2.9-0.4c-0.8,0-2,0.1-2.9,0.6c-1.5,0.7-1.7,1.9-1.7,2.4c0,1.6,0.8,2.1,1.4,2.5c0.8,0.4,2.1,0.7,4.1,0.9
			c2,0.2,3.4,0.3,3.4,1.6c0,1.4-1.8,1.7-3,1.7c-0.9,0-2.3-0.1-3.8-1.1c-1-0.7-1.5-1.8-1.5-2.4c0,0,0-0.1,0.1-0.1h-0.9
			c0,0,0,0.1,0,0.1v4c0,0.1,0,0.1,0,0.1h0.7c0,0,0,0,0,0c0.1-0.1,0.4-0.5,0.7-0.6c0.5-0.2,1,0,1.7,0.2c0.9,0.3,2,0.6,3,0.6
			c1.8,0,4.6-0.4,5.2-2.4c0.3-1,0-2.4-1-3.1c-1-0.6-2-0.8-4.2-1c-1.8-0.2-3.7-0.2-3.7-1.5c0-1.1,1.3-1.6,2.5-1.6
			C-106-720.8-104.4-720.6-103.3-719.8 M-120.3-714.5l0.4,0.6c0.2,0.3,0.4,0.6,0.3,1c-0.1,0.4-0.5,0.7-1.1,0.7h-0.8
			c-0.1,0-0.1,0-0.1,0v0.8c0.1,0,0.1,0,0.1,0h7.5c0,0,0.1,0,0.1,0v-0.8c0,0,0,0-0.1,0l-0.2,0c-0.9,0-1.4,0-2.3-1.3l-5.3-7.7
			c0,0,0,0,0,0h-0.8c0,0,0,0,0,0l-4.2,7c-0.1,0.2-0.6,1-1.1,1.4c-0.5,0.4-1.2,0.7-1.9,0.7h-0.3c-0.1,0-0.1,0-0.1,0v0.8
			c0.1,0,0.1,0,0.1,0h5.9c0,0,0.1,0,0.1,0v-0.8c0,0-0.1,0-0.1,0h-0.2c-0.7,0-1.3-0.1-1.5-0.4c-0.2-0.2-0.3-0.7,0-1.3
			c0.1-0.1,0.2-0.4,0.4-0.6C-125.7-714.5-120.3-714.5-120.3-714.5z M-120.8-715.3h-4.4l2.1-3.4L-120.8-715.3z M-82.4-712.3
			c-1.4-0.1-1.6-0.8-1.6-1.7v-4.8c0-0.9,0.2-1.6,1.6-1.7c0.1,0,0.2,0,0.3,0h0.3c0.1,0,0.2,0,0.2,0v-0.8h0c0,0-0.1,0-0.2,0h-6.9
			c-0.1,0-0.2,0-0.2,0v0.8c0,0,0.1,0,0.2,0h0.3c0.1,0,0.2,0,0.3,0c1.4,0.1,1.6,0.8,1.6,1.7v1.9h-5.7v-1.9c0-0.9,0.2-1.6,1.6-1.7
			c0.1,0,0.2,0,0.3,0h0.3c0.1,0,0.2,0,0.2,0v-0.8c0,0-0.1,0-0.2,0H-97c-0.1,0-0.2,0-0.2,0v0.8c0,0,0.1,0,0.2,0h0.3
			c0.1,0,0.2,0,0.3,0c1.4,0.1,1.6,0.8,1.6,1.7v4.8c0,0.9-0.2,1.6-1.6,1.7c-0.1,0-0.2,0-0.3,0h-0.4c-0.1,0-0.2,0-0.2,0v0.8
			c0,0,0.1,0,0.2,0h7c0.1,0,0.2,0,0.2,0v-0.8c0,0-0.1,0-0.2,0h-0.3c-0.1,0-0.2,0-0.3,0c-1.4-0.1-1.6-0.8-1.6-1.7v-2.1h5.7v2.1
			c0,0.9-0.2,1.6-1.6,1.7c-0.1,0-0.2,0-0.3,0h-0.3c-0.1,0-0.2,0-0.2,0v0.8h0c0,0,0.1,0,0.2,0h7c0.1,0,0.2,0,0.2,0v-0.8
			c0,0-0.1,0-0.2,0h-0.4C-82.2-712.3-82.3-712.3-82.4-712.3"/>
	</g>
</g>
</svg>
